<?xml version="1.0" encoding="UTF-8"?>
<!-- Generator: Adobe Illustrator 24.1.0, SVG Export Plug-In . SVG Version: 6.00 Build 0)  -->
<svg version="1.1" id="Layer_1" xmlns="http://www.w3.org/2000/svg" xmlns:xlink="http://www.w3.org/1999/xlink" x="0px" y="0px" viewBox="0 0 1080 246" style="enable-background:new 0 0 1080 246;" xml:space="preserve">
	<linearGradient id="SVGID_2_" gradientUnits="userSpaceOnUse" x1="209.4230652" y1="47.6114616" x2="26.9652729" y2="230.0692596" gradientTransform="matrix(1 0 0 -1 0 248)">
		<stop offset="0" style="stop-color:#54B133"/>
		<stop offset="1" style="stop-color:#B0D040"/>
	</linearGradient>
	<path style="fill:url(#SVGID_2_);" d="M53.5456467,31.5104485c3.4648361,0,6.7051468,1.3509598,9.1469116,3.7725525      l19.7797775,19.8071899l10.7332001,10.7461357l17.4130096-17.4233551L99.8853455,37.6797676v0.0077553L80.0957413,17.9005051      c-7.091507-7.0987482-16.519268-11.0083609-26.5500946-11.0083609c-10.0313492,0-19.4689331,3.9096127-26.5500965,11.0083609      c-14.1726704,14.1726723-14.1726704,38.9373474,0,53.1001892l55.4767838,55.5145416l-0.0382767,0.045517l10.7259674,10.7357864      l17.4130325-17.4207611l-10.7182312-10.7176895l0.0481262-0.045517L44.3982162,53.6182022      c-2.441761-2.4624519-3.7854805-5.7027893-3.7854805-9.1572571c0-3.4575691,1.3437195-6.6979065,3.7854805-9.1779442      C46.8404961,32.8614082,50.0808372,31.5104485,53.5456467,31.5104485z M209.4367523,147.2797852l-55.484024-55.5222931      l-10.7357941-10.7456207l-17.4130096,17.4228363l10.7254486,10.7332077l55.5145416,55.4969559      c2.4246826,2.442276,3.77565,5.6996918,3.77565,9.1469116s-1.3509674,6.7103271-3.77565,9.1701813      c-2.4521179,2.4241791-5.6898651,3.7932434-9.1572571,3.7932434c-3.4648132,0-6.6947784-1.3690643-9.1469116-3.7932434      l-19.7797852-19.8123627l-10.7228546-10.7332001l-17.4228439,17.4104309l10.7352829,10.751297l19.7870178,19.7766724      c7.091507,7.1013336,16.5218506,11.0083618,26.5500946,11.0083618c10.0313416,0,19.4689331-3.9070282,26.5500946-11.0083618      C223.6197662,186.2119598,223.6197662,161.4421082,209.4367523,147.2797852z"/>
	<defs>
		<filter id="Adobe_OpacityMaskFilter" filterUnits="userSpaceOnUse" x="16.3660469" y="6.8921442" width="203.707962" height="204.4910126">
			<feColorMatrix type="matrix" values="1 0 0 0 0  0 1 0 0 0  0 0 1 0 0  0 0 0 1 0"/>
		</filter>
	</defs>
	<mask maskUnits="userSpaceOnUse" x="16.3660469" y="6.8921442" width="203.707962" height="204.4910126" id="SVGID_1_">
		<g style="filter:url(#Adobe_OpacityMaskFilter);">
		</g>
	</mask>
	<g style="opacity:0.4;mask:url(#SVGID_1_);">
		<path style="fill:#1C963B;" d="M53.5456467,31.5104485c3.4648361,0,6.7051468,1.3509598,9.1469116,3.7725525      l19.7797775,19.8071899l10.7332001,10.7461357l17.4130096-17.4233551L99.8853455,37.6797676v0.0077553L80.0957413,17.9005051      c-7.091507-7.0987482-16.519268-11.0083609-26.5500946-11.0083609c-10.0313492,0-19.4689331,3.9096127-26.5500965,11.0083609      c-14.1726704,14.1726723-14.1726704,38.9373474,0,53.1001892l55.4767838,55.5145416l-0.0382767,0.045517l10.7259674,10.7357864      l17.4130325-17.4207611l-10.7182312-10.7176895l0.0481262-0.045517L44.3982162,53.6182022      c-2.441761-2.4624519-3.7854805-5.7027893-3.7854805-9.1572571c0-3.4575691,1.3437195-6.6979065,3.7854805-9.1779442      C46.8404961,32.8614082,50.0808372,31.5104485,53.5456467,31.5104485z M209.4367523,147.2797852l-55.484024-55.5222931      l-10.7357941-10.7456207l-17.4130096,17.4228363l10.7254486,10.7332077l55.5145416,55.4969559      c2.4246826,2.442276,3.77565,5.6996918,3.77565,9.1469116s-1.3509674,6.7103271-3.77565,9.1701813      c-2.4521179,2.4241791-5.6898651,3.7932434-9.1572571,3.7932434c-3.4648132,0-6.6947784-1.3690643-9.1469116-3.7932434      l-19.7797852-19.8123627l-10.7228546-10.7332001l-17.4228439,17.4104309l10.7352829,10.751297l19.7870178,19.7766724      c7.091507,7.1013336,16.5218506,11.0083618,26.5500946,11.0083618c10.0313416,0,19.4689331-3.9070282,26.5500946-11.0083618      C223.6197662,186.2119598,223.6197662,161.4421082,209.4367523,147.2797852z"/>
	</g>
	<linearGradient id="SVGID_4_" gradientUnits="userSpaceOnUse" x1="144.7750397" y1="112.2894897" x2="91.5902863" y2="165.4742432" gradientTransform="matrix(1 0 0 -1 0 248)">
		<stop offset="0" style="stop-color:#54B133"/>
		<stop offset="1" style="stop-color:#B0D040"/>
	</linearGradient>
	<path style="fill:url(#SVGID_4_);" d="M209.4367523,17.9284344c-14.1804047-14.1804285-38.927002-14.1804285-53.1074371,0      L100.8147736,73.40522l-0.0480728-0.0481033L90.0334702,84.0825653l17.4202499,17.4233551L118.169342,90.779953      l0.0656815,0.0656891l55.4969559-55.5321274c2.4495544-2.4241753,5.6996918-3.7678947,9.1474609-3.7678947      c3.4544373,0,6.7123566,1.3437195,9.1546631,3.7678947c2.434494,2.4495239,3.7958069,5.6898613,3.7958069,9.1650162      c0,3.4570503-1.3613129,6.6973915-3.7958069,9.1469116L172.2367249,73.40522l-0.0098267-0.0103455l-10.7233887,10.7357941      l17.4207764,17.4202499l10.7254791-10.7430344l19.7869873-19.7792587      c7.1018524-7.091507,10.9985352-16.5192642,10.9985352-26.5500946      C220.4352875,34.4497719,216.5386047,25.0095978,209.4367523,17.9284344z M118.1869278,127.4544983L118.1869278,127.4544983      L62.6749725,182.964386c-2.4241791,2.4215851-5.6821022,3.77565-9.1293259,3.77565      c-3.4549828,0-6.7051506-1.3540649-9.1676025-3.77565c-2.4391479-2.442276-3.7932396-5.6976166-3.7932396-9.1526031      c0-3.467392,1.3540916-6.7046356,3.7932396-9.1572571l19.7999496-19.7689209h0.0072403l10.7357864-10.7156067      l-17.4207649-17.4233627l-10.7352715,10.7259674l-19.7870197,19.7890854      c-7.1018505,7.0816803-11.0083351,16.5290985-11.0083351,26.5500946c0,10.0163422,3.9064846,19.4637604,11.0083351,26.5454407      c14.170084,14.1804352,38.927002,14.1804352,53.1002197,0l55.5217438-55.4819641l0,0l10.7357941-10.7254333      l-17.4228363-17.4207764L118.1869278,127.4544983z"/>
	<defs>
		<filter id="Adobe_OpacityMaskFilter_1_" filterUnits="userSpaceOnUse" x="15.9696293" y="7.2931128" width="204.4656525" height="203.6994324">
			<feColorMatrix type="matrix" values="1 0 0 0 0  0 1 0 0 0  0 0 1 0 0  0 0 0 1 0"/>
		</filter>
	</defs>
	<mask maskUnits="userSpaceOnUse" x="15.9696293" y="7.2931128" width="204.4656525" height="203.6994324" id="SVGID_3_">
		<g style="filter:url(#Adobe_OpacityMaskFilter_1_);">
		</g>
	</mask>
	<g style="opacity:0.4;mask:url(#SVGID_3_);">
		<path style="fill:#1C963B;" d="M209.4367523,17.9284344c-14.1804047-14.1804285-38.927002-14.1804285-53.1074371,0      L100.8147736,73.40522l-0.0480728-0.0481033L90.0334702,84.0825653l17.4202499,17.4233551L118.169342,90.779953      l0.0656815,0.0656891l55.4969559-55.5321274c2.4495544-2.4241753,5.6996918-3.7678947,9.1474609-3.7678947      c3.4544373,0,6.7123566,1.3437195,9.1546631,3.7678947c2.434494,2.4495239,3.7958069,5.6898613,3.7958069,9.1650162      c0,3.4570503-1.3613129,6.6973915-3.7958069,9.1469116L172.2367249,73.40522l-0.0098267-0.0103455l-10.7233887,10.7357941      l17.4207764,17.4202499l10.7254791-10.7430344l19.7869873-19.7792587      c7.1018524-7.091507,10.9985352-16.5192642,10.9985352-26.5500946      C220.4352875,34.4497719,216.5386047,25.0095978,209.4367523,17.9284344z M118.1869278,127.4544983L118.1869278,127.4544983      L62.6749725,182.964386c-2.4241791,2.4215851-5.6821022,3.77565-9.1293259,3.77565      c-3.4549828,0-6.7051506-1.3540649-9.1676025-3.77565c-2.4391479-2.442276-3.7932396-5.6976166-3.7932396-9.1526031      c0-3.467392,1.3540916-6.7046356,3.7932396-9.1572571l19.7999496-19.7689209h0.0072403l10.7357864-10.7156067      l-17.4207649-17.4233627l-10.7352715,10.7259674l-19.7870197,19.7890854      c-7.1018505,7.0816803-11.0083351,16.5290985-11.0083351,26.5500946c0,10.0163422,3.9064846,19.4637604,11.0083351,26.5454407      c14.170084,14.1804352,38.927002,14.1804352,53.1002197,0l55.5217438-55.4819641l0,0l10.7357941-10.7254333      l-17.4228363-17.4207764L118.1869278,127.4544983z"/>
	</g>
	<linearGradient id="SVGID_5_" gradientUnits="userSpaceOnUse" x1="429.5353088" y1="372.5880127" x2="909.0900879" y2="-106.9667206" gradientTransform="matrix(1 0 0 -1 0 237.9989929)">
		<stop offset="0" style="stop-color:#212121"/>
		<stop offset="1" style="stop-color:#0D0D0D"/>
	</linearGradient>
	<path style="fill:url(#SVGID_5_);" d="M432.535553,16.5392017c-1.7073364-1.7093897-3.7833862-3.0634537-6.1217346-4.0761566    c-2.293335-0.9946003-4.7909546-1.5025034-7.4023743-1.5025034c-2.6108704,0-5.1090088,0.5079031-7.399231,1.5025034    c-2.3388367,0.9951181-4.3766785,2.3667669-6.0488281,4.0559845c-1.6995239,1.6721497-3.0531006,3.720314-4.0657959,6.0488071    c-1.0049438,2.2928047-1.5024719,4.7350845-1.5024719,7.2880478c0,2.6114082,0.4975281,5.0712738,1.5024719,7.3263206    c0.9951172,2.2907372,2.366272,4.3187294,4.0657959,6.0105324c1.6721497,1.6897354,3.7099915,3.0608673,6.0488281,4.0559845    c2.2902222,0.995121,4.7883606,1.5030212,7.399231,1.5030212c2.6114197,0,5.1090393-0.5079002,7.4023743-1.5030212    c2.3383484-1.0127029,4.4143982-2.3838348,6.1217346-4.0761528c1.7373047-1.6892204,3.1187744-3.6996269,4.1138916-5.9903641    c0.9951172-2.2348747,1.4926758-4.7149124,1.4926758-7.3263206c0-2.5529633-0.4975586-4.9952431-1.4926758-7.2880478    C435.6543274,20.2393436,434.2553101,18.2289352,432.535553,16.5392017z M556.0656738,81.0392838    c-4.9047241-4.9393845-10.7182007-8.8841705-17.2718506-11.7003937    c-6.565979-2.8358765-13.6373291-4.2654572-21.0189819-4.2654572c-7.3822021,0-14.4535217,1.4295807-21.0195007,4.2654572    c-6.5536499,2.8162231-12.3671265,6.7610092-17.2718506,11.7003937    c-4.9093933,4.9399033-8.8464355,10.8014755-11.6724854,17.4130096    c-2.8182678,6.5939484-4.2530212,13.7108002-4.2530212,21.1886673v70.3844147h26.8960876v-70.3844147    c0-3.7197952,0.7225647-7.3061523,2.1593933-10.6499329c1.4093933-3.3256836,3.3919067-6.2551727,5.8615723-8.7533112    c2.4976196-2.4795227,5.4095154-4.4521713,8.6772766-5.8791656c3.3163757-1.4290543,6.884613-2.1412582,10.6225281-2.1412582    c3.7373657,0,7.3061523,0.712204,10.6220093,2.1412582c3.2677612,1.4269943,6.1796265,3.3996429,8.6772461,5.8791656    c2.4697266,2.4981384,4.4522095,5.4276276,5.8615723,8.7533112c1.4368286,3.3437805,2.1593628,6.9301376,2.1593628,10.6499329    v70.3844147h26.8961182v-70.3844147c0-7.4778671-1.4346924-14.5947189-4.2530518-21.1886673    C564.9094849,91.8407593,560.9750366,85.979187,556.0656738,81.0392838z M299.3909607,24.1256809h-28.570343v165.8996887    h114.410614v-28.5729218h-85.840271V24.1256809z M405.384491,190.0253754h27.1334534V67.5912323H405.384491V190.0253754z     M979.3062134,76.3067856c-0.7675171-0.5808334-1.444519-1.2780304-2.2322998-1.8412781    c-3.3334351-2.3662491-6.848938-4.4319992-10.5361328-6.1972504c-3.6572266-1.7652435-7.4198608-3.1368942-11.3088379-4.1314926    c-3.8134155-0.9599495-7.7282104-1.4673347-11.6170654-1.4673347c-8.6018677,0-16.774353,1.5987053-24.3256226,4.7526665    c-7.5611572,3.157074-14.2383423,7.6268234-19.8904419,13.3166885    c-5.6469727,5.6924438-10.1725464,12.6044769-13.4506836,20.5499039    c-3.2677612,7.9449081-4.9191895,16.8295975-4.9191895,26.3706284c0,10.2759857,1.6514282,19.5366821,4.9191895,27.5198669    c3.2781372,7.9831848,7.7886963,14.7990112,13.4103394,20.2669983c5.6469116,5.5077972,12.31427,9.7329102,19.8552856,12.6070557    c7.5610962,2.8938141,15.7791748,4.358551,24.401123,4.358551c3.888855,0,7.782959-0.4897919,11.5513916-1.4647369    c3.8485718-0.9971924,7.6268311-2.3486633,11.2783813-4.0580597c3.6923218-1.7274933,7.2026367-3.7554779,10.5262451-6.1041412    c0.8182373-0.5834198,1.5304565-1.263031,2.3383179-1.8640442v11.1045685h26.9013062V67.5912323h-26.9013062V76.3067856z     M976.2758789,141.7487183c-1.8334961,4.487854-4.3688965,8.5262451-7.5409546,12.000885    c-3.1772461,3.4751587-6.9400024,6.3110352-11.2131958,8.4150543c-4.3337402,2.1412659-9.015564,3.2325897-13.9098511,3.2325897    c-4.8085938,0-9.3947144-0.8285828-13.6679688-2.4624481c-4.3285522-1.651474-8.1217651-4.1490936-11.3140259-7.3816681    c-3.1921997-3.2098236-5.7276001-7.2306366-7.5259399-11.9455566c-1.7932129-4.6595764-2.7122803-10.0313416-2.7122803-15.9482574    c0-5.9148483,0.9190674-11.2685242,2.7122803-15.9255066c1.7983398-4.71492,4.3337402-8.735733,7.5259399-11.9657288    c3.1922607-3.2325821,6.9854736-5.7100296,11.3140259-7.3640747c4.2732544-1.6338806,8.859375-2.4598694,13.6679688-2.4598694    c4.8942871,0,9.5761108,1.0706329,13.9098511,3.2299957c4.2731934,2.1040268,8.0359497,4.9399033,11.2131958,8.415062    c3.1720581,3.4746323,5.7074585,7.4954453,7.5409546,11.9833069c1.8588867,4.5281982,2.7980957,9.2606964,2.7980957,14.0868149    C979.0739746,132.4880066,978.1347656,137.2406769,976.2758789,141.7487183z M829.9154663,137.9528809    c0,3.7378998-0.7220459,7.3263245-2.161438,10.670105c-1.4094238,3.3236237-3.3892822,6.2556915-5.8590088,8.7331543    c-2.5001831,2.4976196-5.4094849,4.4723358-8.6777344,5.8791504c-3.3132935,1.4471588-6.8840942,2.1619568-10.6220703,2.1619568    c-3.7373657,0-7.3087158-0.714798-10.6220093-2.1619568c-3.2677002-1.4068146-6.177063-3.3815308-8.6772461-5.8791504    c-2.4702148-2.4774628-4.4501343-5.4095306-5.8590088-8.7331543c-1.4399414-3.3437805-2.1619263-6.9322052-2.1619263-10.670105    V67.5912323h-26.8961182v70.3616486c0,7.4752808,1.4342041,14.5947266,4.2530518,21.2062531    c2.828125,6.6120605,6.7630615,12.4529419,11.6724854,17.4130096c4.9041748,4.9450836,10.7181396,8.8696899,17.2738647,11.7081604    c6.5613403,2.8157043,13.6326904,4.242691,21.0169067,4.242691c7.3796387,0,14.4556274-1.4269867,21.0169678-4.242691    c6.5562134-2.8384705,12.3696899-6.7630768,17.2738647-11.7081604    c4.9099121-4.9600677,8.8443604-10.8009491,11.6729736-17.4130096c2.8182983-6.6115265,4.2525635-13.7309723,4.2525635-21.2062531    V67.5912323h-26.8961182V137.9528809z M1036.8864746,16.5769577v173.4484253h27.1439209V16.5769577H1036.8864746z     M692.4702148,76.3067856c-0.7727051-0.5808334-1.449707-1.2780304-2.2374268-1.8412781    c-3.3334351-2.3662491-6.84375-4.4319992-10.5361328-6.1972504c-3.6520386-1.7652435-7.4199219-3.1368942-11.3192139-4.1314926    c-3.8031006-0.9599495-7.7178955-1.4673347-11.6067505-1.4673347c-8.581665,0-16.7639771,1.6540489-24.284729,4.9218025    c-7.5611572,3.2682648-14.2688599,7.8518066-19.9106445,13.6171799    c-5.6624756,5.7684784-10.197876,12.7182693-13.4708252,20.6254196    c-3.2682495,7.9071503-4.9300537,16.6051254-4.9300537,25.8254852c0,10.1068573,1.6618042,19.292038,4.9300537,27.274704    c3.2729492,7.9831848,7.788208,14.802124,13.414978,20.2845764c5.6417236,5.4902191,12.3292847,9.7737732,19.8703003,12.7234497    c7.5611572,2.9672394,15.7589722,4.4697418,24.3809204,4.4697418c2.6113892,0,5.4648438-0.151535,8.5003662-0.4696198    c2.9951782-0.2829132,5.8388062-0.8461609,8.6017456-1.6338806c2.6869507-0.7701263,5.1669922-1.7652435,7.3640747-2.9672546    c1.9700928-1.0913086,3.4094849-2.4246826,4.4247437-4.0761566l5.2683716,2.2524719    c-0.9196167,3.4575653-2.1723022,6.7811737-3.7275391,9.8999786c-1.6364746,3.2475739-3.8336182,6.179657-6.5665894,8.6772766    c-2.7324219,2.5177917-6.1217041,4.5256195-10.0613403,5.9727783c-3.8842773,1.4269867-8.6167603,2.1417694-14.086792,2.1417694    h-37.7705078v26.8986969h38.0736084c8.581604,0,16.7333984-1.6545563,24.2593384-4.9047241    c7.5864868-3.267746,14.2942505-7.7757874,19.9561768-13.4102936    c5.6417236-5.6164246,10.1776733-12.2838135,13.4506226-19.8170166    c3.2475586-7.4928741,4.9093628-15.6451874,4.9093628-24.2164307V67.5912323h-26.8961182V76.3067856z M689.4346924,141.7487183    c-1.8386841,4.487854-4.3740234,8.5262451-7.5409546,12.000885c-3.1772461,3.4751587-6.9503174,6.3110352-11.2131348,8.4150543    c-4.3286133,2.1412659-9.0259399,3.2325897-13.9099121,3.2325897c-4.8287354,0-9.4552002-0.9015045-13.7485962-2.669342    c-4.293396-1.7833557-8.0762939-4.3564758-11.2684937-7.6826782c-3.1571045-3.2853394-5.6924438-7.2859802-7.4856567-11.8896942    c-1.7931519-4.6016388-2.7174072-9.803772-2.7174072-15.4962158c0-5.9148483,0.9242554-11.2685242,2.7174072-15.9255066    c1.7932129-4.71492,4.3285522-8.735733,7.520813-11.9657288c3.1921997-3.2325821,6.9854736-5.7100296,11.3192139-7.3640747    c4.2628784-1.6338806,8.854126-2.4598694,13.6627197-2.4598694c4.8839722,0,9.5812988,1.0706329,13.9099121,3.2299957    c4.2628174,2.1040268,8.0358887,4.9399033,11.2131348,8.415062c3.1669312,3.4746323,5.7022705,7.4954453,7.5409546,11.9833069    c1.8485718,4.5281982,2.7883301,9.2606964,2.7883301,14.0868149    C692.2230225,132.4880066,691.2832642,137.2406769,689.4346924,141.7487183z"/>
</svg>